<svg width="512" height="512" viewBox="0 0 512 512" fill="none" xmlns="http://www.w3.org/2000/svg">
  <defs>
    <linearGradient id="arenaGrad" x1="96" y1="96" x2="416" y2="416" gradientUnits="userSpaceOnUse">
      <stop stop-color="#0F172A"/>
      <stop offset="1" stop-color="#1E293B"/>
    </linearGradient>
    <linearGradient id="clawGrad" x1="186" y1="152" x2="326" y2="340" gradientUnits="userSpaceOnUse">
      <stop stop-color="#7C3AED"/>
      <stop offset="1" stop-color="#22D3EE"/>
    </linearGradient>
  </defs>

  <!-- Arena ring -->
  <circle cx="256" cy="256" r="220" fill="url(#arenaGrad)"/>
  <circle cx="256" cy="256" r="188" stroke="#334155" stroke-width="16"/>
  <circle cx="256" cy="256" r="150" stroke="#475569" stroke-width="6" stroke-dasharray="10 16"/>

  <!-- Center arena floor -->
  <polygon points="256,194 314,227 314,285 256,318 198,285 198,227" fill="#0B1220" stroke="#64748B" stroke-width="6"/>

  <!-- Geometric claw -->
  <path d="M208 154L256 262L236 262L184 168L208 154Z" fill="url(#clawGrad)"/>
  <path d="M256 138L284 262L256 262L228 142L256 138Z" fill="url(#clawGrad)"/>
  <path d="M304 154L328 168L276 262L256 262L304 154Z" fill="url(#clawGrad)"/>

  <!-- Impact slash -->
  <path d="M188 300L232 300L214 360H170L188 300Z" fill="#22D3EE" opacity="0.9"/>
  <path d="M280 300L324 300L342 360H298L280 300Z" fill="#7C3AED" opacity="0.9"/>
</svg>
